<svg width="20" height="20" viewBox="0 0 20 20" fill="none" xmlns="http://www.w3.org/2000/svg">
<g clip-path="url(#clip0)">
<path d="M4.6716 2.05664C2.67723 2.05664 1.05469 3.67613 1.05469 5.66676C1.05469 6.98719 1.77625 8.20145 2.93777 8.8357C3.02629 8.88402 3.12273 8.90742 3.21832 8.90742C3.38355 8.90742 3.54621 8.83758 3.66062 8.70606L7.54348 4.24328C7.72469 4.035 7.73594 3.72848 7.57047 3.5075C6.89031 2.59902 5.8066 2.05664 4.6716 2.05664Z" fill="#FFDC48"/>
<path d="M15.3279 2.05664C14.1871 2.05664 13.1001 2.60344 12.4202 3.51937C12.2561 3.74031 12.268 4.04566 12.4486 4.25324L16.3282 8.71187C16.4427 8.84332 16.6052 8.9132 16.7705 8.9132C16.8653 8.9132 16.9611 8.89019 17.049 8.84262C18.2184 8.2102 18.9448 6.99328 18.9448 5.66676C18.9448 3.67613 17.3223 2.05664 15.3279 2.05664Z" fill="#FFC200"/>
<path d="M3.62877 18.4364C3.26978 19.1556 3.79404 20.0005 4.59928 20.0005C5.01127 20.0005 5.38767 19.7675 5.57068 19.3991L7.07623 16.7015L5.25564 15.5068L3.62877 18.4364Z" fill="#2A5959"/>
<path d="M16.385 18.4364L14.7581 15.5068L12.9375 16.7015L14.443 19.3991C14.6261 19.7675 15.0025 20.0005 15.4145 20.0005C16.2197 20.0005 16.7439 19.1556 16.385 18.4364Z" fill="#2B4747"/>
<path d="M11.2172 1.22227V3.31953H8.76758V1.22227C8.76758 0.550391 9.31133 0.0046875 9.98359 0H9.99258C10.6688 0 11.2172 0.547266 11.2172 1.22227Z" fill="#2A5959"/>
<path d="M11.218 1.22227V3.31953H9.98438V0H9.99336C10.6695 0 11.218 0.547266 11.218 1.22227Z" fill="#2B4747"/>
<path d="M17.0383 10.2898C17.0383 14.1777 13.8797 17.3293 9.9832 17.3293C6.08633 17.3293 2.92773 14.1777 2.92773 10.2898C2.92773 6.40195 6.08633 3.25 9.9832 3.25C13.8797 3.25 17.0383 6.40195 17.0383 10.2898Z" fill="white"/>
<path d="M17.0395 10.2898C17.0395 14.1777 13.8809 17.3293 9.98438 17.3293V3.25C13.8809 3.25 17.0395 6.40195 17.0395 10.2898Z" fill="#F4F1F1"/>
<path d="M9.99297 2.66406H9.98398C5.77422 2.66875 2.35156 6.08828 2.35156 10.2898C2.35156 14.4914 5.77422 17.9105 9.98398 17.9152H9.99297C14.2063 17.9152 17.634 14.4945 17.634 10.2898C17.634 6.08516 14.2063 2.66406 9.99297 2.66406ZM9.99297 16.7434H9.98398C6.4207 16.7387 3.52344 13.8453 3.52344 10.2898C3.52344 6.73438 6.4207 3.84063 9.98398 3.83594H9.99297C13.5602 3.83594 16.4621 6.73125 16.4621 10.2898C16.4621 13.8484 13.5602 16.7434 9.99297 16.7434Z" fill="#FF5C5C"/>
<path d="M11.948 10.2896C11.948 10.6131 11.6859 10.8756 11.3621 10.8756H9.99219C9.98906 10.8756 9.98633 10.8756 9.9832 10.8752C9.66367 10.8705 9.40625 10.61 9.40625 10.2896V8.0498C9.40625 7.7291 9.66367 7.46895 9.9832 7.46426C9.98633 7.46387 9.98906 7.46387 9.99219 7.46387C10.3156 7.46387 10.5781 7.72598 10.5781 8.0498V9.70371H11.3621C11.6859 9.70371 11.948 9.96582 11.948 10.2896Z" fill="#2A5959"/>
<path d="M10.5781 14.4609V15.2457C10.5781 15.5695 10.3156 15.8316 9.99219 15.8316C9.98906 15.8316 9.98633 15.8316 9.9832 15.8313C9.66367 15.8266 9.40625 15.5664 9.40625 15.2457V14.4609C9.40625 14.1406 9.66367 13.8801 9.9832 13.8754C9.98633 13.875 9.98906 13.875 9.99219 13.875C10.3157 13.875 10.5781 14.1375 10.5781 14.4609Z" fill="#2A5959"/>
<path d="M10.5703 5.17578V5.96055C10.5703 6.28398 10.3078 6.54648 9.98438 6.54648C9.66055 6.54648 9.39844 6.28398 9.39844 5.96055V5.17578C9.39844 4.85195 9.66055 4.58984 9.98438 4.58984C10.3078 4.58984 10.5703 4.85195 10.5703 5.17578Z" fill="#2A5959"/>
<path d="M6.51707 10.291C6.51707 9.96742 6.25473 9.70508 5.93113 9.70508H5.14453C4.82094 9.70508 4.55859 9.96742 4.55859 10.291C4.55859 10.6146 4.82094 10.877 5.14453 10.877H5.93113C6.25473 10.877 6.51707 10.6146 6.51707 10.291Z" fill="#2A5959"/>
<path d="M14.9057 9.70312H14.1191C13.7955 9.70312 13.5332 9.96547 13.5332 10.2891C13.5332 10.6127 13.7955 10.875 14.1191 10.875H14.9057C15.2293 10.875 15.4917 10.6127 15.4917 10.2891C15.4917 9.96547 15.2293 9.70312 14.9057 9.70312Z" fill="#2B4747"/>
<path d="M13.4275 12.8235C13.1984 12.5949 12.8275 12.5954 12.5989 12.8244C12.3703 13.0535 12.3707 13.4245 12.5998 13.6531L13.156 14.208C13.2704 14.3222 13.4201 14.3792 13.5699 14.3792C13.72 14.3792 13.8702 14.3218 13.9847 14.2071C14.2132 13.9781 14.2128 13.607 13.9838 13.3785L13.4275 12.8235Z" fill="#2B4747"/>
<path d="M6.57004 7.64845C6.68442 7.76259 6.83415 7.81962 6.98391 7.81962C7.13407 7.81962 7.28422 7.76224 7.39872 7.64755C7.62727 7.41849 7.62684 7.04748 7.39778 6.81892L6.84157 6.26396C6.61247 6.03537 6.24153 6.03576 6.01293 6.26486C5.78438 6.49392 5.78481 6.86494 6.01387 7.09349L6.57004 7.64845Z" fill="#2A5959"/>
<path d="M6.77322 12.7405L6.21701 13.2955C5.98791 13.5241 5.98751 13.8951 6.21611 14.1241C6.33056 14.2389 6.48072 14.2962 6.63087 14.2962C6.7806 14.2962 6.93037 14.2392 7.04474 14.125L7.60095 13.57C7.83005 13.3414 7.83044 12.9705 7.60185 12.7414C7.3733 12.5123 7.00228 12.5119 6.77322 12.7405Z" fill="#2A5959"/>
<path d="M12.9765 7.96319C13.1263 7.96319 13.276 7.90616 13.3904 7.79202L13.9466 7.23706C14.1757 7.00851 14.1761 6.63749 13.9475 6.40843C13.719 6.17937 13.348 6.17886 13.1189 6.40753L12.5627 6.96249C12.3336 7.19104 12.3332 7.56206 12.5618 7.79112C12.6762 7.90581 12.8263 7.96319 12.9765 7.96319Z" fill="#2B4747"/>
<path d="M9.99336 10.8746C9.99023 10.8746 9.9875 10.8746 9.98438 10.8742V7.46328C9.9875 7.46289 9.99023 7.46289 9.99336 7.46289C10.3168 7.46289 10.5793 7.725 10.5793 8.04883V9.70273H11.3633C11.6871 9.70273 11.9492 9.96484 11.9492 10.2887C11.9492 10.6121 11.6871 10.8746 11.3633 10.8746H9.99336Z" fill="#2B4747"/>
<path d="M17.6344 10.2898C17.6344 14.4945 14.2066 17.9152 9.99336 17.9152H9.98438V16.7434H9.99336C13.5605 16.7434 16.4625 13.8484 16.4625 10.2898C16.4625 6.73125 13.5605 3.83594 9.99336 3.83594H9.98438V2.66406H9.99336C14.2066 2.66406 17.6344 6.08516 17.6344 10.2898Z" fill="#E20059"/>
<path d="M9.98438 6.54551V4.58887C10.3078 4.58887 10.5703 4.85098 10.5703 5.1748V5.95957C10.5703 6.28301 10.3078 6.54551 9.98438 6.54551Z" fill="#2B4747"/>
<path d="M10.5793 14.4609V15.2457C10.5793 15.5695 10.3168 15.8316 9.99336 15.8316C9.99023 15.8316 9.9875 15.8316 9.98438 15.8313V13.8754C9.9875 13.875 9.99023 13.875 9.99336 13.875C10.3168 13.875 10.5793 14.1375 10.5793 14.4609Z" fill="#2B4747"/>
</g>
<defs>
<clipPath id="clip0">
<rect width="20" height="20" fill="white"/>
</clipPath>
</defs>
</svg>
