<svg width="64" height="64" viewBox="0 0 64 64" fill="none" xmlns="http://www.w3.org/2000/svg">
<path d="M30.7991 34.3963L13.422 29.373L12.3398 30.2215V38.0279C12.3398 39.3029 12.9628 40.4957 14.0073 41.2268C16.2897 42.8245 21.3023 45.105 31.3213 45.105C41.3406 45.105 46.3542 42.8243 48.6373 41.2267C49.6821 40.4955 50.3053 39.3027 50.3053 38.0274V30.6132L49.083 29.8052C41.9206 31.8757 35.974 33.5947 33.2 34.3965C32.4153 34.6233 31.5836 34.623 30.7991 34.3963Z" fill="#2D4456"/>
<path d="M60.122 40.3157C59.5875 40.3157 59.1543 39.8824 59.1543 39.3479V23.2939C59.1543 22.7594 59.5875 22.3262 60.122 22.3262C60.6565 22.3262 61.0898 22.7594 61.0898 23.2939V39.3479C61.0898 39.8824 60.6565 40.3157 60.122 40.3157Z" fill="#FFBE7C"/>
<path d="M12.3398 27.8975V30.22L30.7991 35.5561C31.5836 35.783 32.4163 35.783 33.201 35.5561L50.3053 30.6117V28.2891L12.3398 27.8975Z" fill="#253847"/>
<path d="M31.3213 43.1272C15.9007 43.1272 12.3398 37.7246 12.3398 37.7246V42.6729C12.3398 43.9479 12.9628 45.1406 14.0073 45.8717C16.2897 47.4695 21.3023 49.75 31.3213 49.75C41.3406 49.75 46.3543 47.4692 48.6373 45.8716C49.6821 45.1405 50.3053 43.9476 50.3053 42.6724V37.7246C50.3053 37.7246 46.742 43.1272 31.3213 43.1272Z" fill="#86DCFF"/>
<path d="M48.6373 44.7089C46.3542 46.3066 41.3406 48.5874 31.3213 48.5874C21.3025 48.5874 16.2898 46.3069 14.0073 44.7091C12.9628 43.9779 12.3398 42.7853 12.3398 41.5103V43.8329C12.3398 45.1079 12.9628 46.3006 14.0073 47.0318C16.2897 48.6295 21.3023 50.91 31.3213 50.91C41.3406 50.91 46.3542 48.6294 48.6373 47.0316C49.6821 46.3005 50.3053 45.1076 50.3053 43.8324V41.5098C50.3053 42.7849 49.6822 43.9776 48.6373 44.7089Z" fill="#56CAED"/>
<path d="M1.04119 21.8612L30.7991 13.2589C31.5836 13.0322 32.4163 13.0322 33.2009 13.2589L62.9588 21.8612C64.3471 22.2624 64.3471 24.2296 62.9588 24.6308L33.2009 33.2331C32.4164 33.4598 31.5837 33.4598 30.7991 33.2331L1.04119 24.6308C-0.347062 24.2294 -0.347062 22.2624 1.04119 21.8612Z" fill="#405B6C"/>
</svg>
