<svg width="20" height="20" viewBox="0 0 20 20" fill="none" xmlns="http://www.w3.org/2000/svg">
<path d="M18.0078 4.91328V18.3156C18.0078 19.2445 17.2523 20 16.3234 20H3.67656C2.74766 20 1.99219 19.2445 1.99219 18.3156V1.68437C1.99219 0.755469 2.74766 0 3.67656 0H13.482L18.0078 4.91328Z" fill="#F4F1F1"/>
<path d="M18.0078 4.91328V18.3156C18.0078 19.2445 17.2523 20 16.3234 20H10V0H13.482L18.0078 4.91328Z" fill="#E7DFDD"/>
<path d="M18.0062 4.71797V4.91328H14.0664C13.7426 4.91328 13.4805 4.65117 13.4805 4.32734V0H13.6758C13.841 0 13.9988 0.0699219 14.1098 0.192578L17.8547 4.32461C17.9523 4.43242 18.0062 4.57266 18.0062 4.71797Z" fill="#DAD0CB"/>
<path d="M11.5027 8.58496C11.5027 8.90879 11.2406 9.1709 10.9168 9.1709H4.86523C4.5418 9.1709 4.2793 8.90879 4.2793 8.58496C4.2793 8.26152 4.5418 7.99902 4.86523 7.99902H10.9168C11.2406 7.99902 11.5027 8.26152 11.5027 8.58496Z" fill="#2A5959"/>
<path d="M11.5027 12.5693C11.5027 12.8932 11.2406 13.1553 10.9168 13.1553H4.86523C4.5418 13.1553 4.2793 12.8932 4.2793 12.5693C4.2793 12.2459 4.5418 11.9834 4.86523 11.9834H10.9168C11.2406 11.9834 11.5027 12.2459 11.5027 12.5693Z" fill="#2A5959"/>
<path d="M11.5027 16.416C11.5027 16.7395 11.2406 17.002 10.9168 17.002H4.86523C4.5418 17.002 4.2793 16.7395 4.2793 16.416C4.2793 16.0922 4.5418 15.8301 4.86523 15.8301H10.9168C11.2406 15.8301 11.5027 16.0922 11.5027 16.416Z" fill="#2A5959"/>
<path d="M4.86523 3.16504H6.69934C7.02293 3.16504 7.28527 2.9027 7.28527 2.5791C7.28527 2.25551 7.02293 1.99316 6.69934 1.99316H4.86523C4.54164 1.99316 4.2793 2.25551 4.2793 2.5791C4.2793 2.9027 4.5416 3.16504 4.86523 3.16504Z" fill="#FFB454"/>
<path d="M8.85168 4.02832H4.86523C4.54164 4.02832 4.2793 4.29066 4.2793 4.61426C4.2793 4.93785 4.54164 5.2002 4.86523 5.2002H8.85172C9.17531 5.2002 9.43766 4.93785 9.43766 4.61426C9.43766 4.29066 9.17527 4.02832 8.85168 4.02832Z" fill="#FFB454"/>
<path d="M11.5031 16.416C11.5031 16.7395 11.241 17.002 10.9172 17.002H10V15.8301H10.9172C11.241 15.8301 11.5031 16.0922 11.5031 16.416Z" fill="#2B4747"/>
<path d="M11.5031 12.5693C11.5031 12.8932 11.241 13.1553 10.9172 13.1553H10V11.9834H10.9172C11.241 11.9834 11.5031 12.2459 11.5031 12.5693Z" fill="#2B4747"/>
<path d="M10.9172 9.1709H10V7.99902H10.9172C11.241 7.99902 11.5031 8.26152 11.5031 8.58496C11.5031 8.90879 11.241 9.1709 10.9172 9.1709Z" fill="#2B4747"/>
<path d="M13.7765 9.88968C13.8909 10.0041 14.0408 10.0613 14.1908 10.0613C14.3407 10.0613 14.4907 10.0041 14.6051 9.88968L16.2484 8.24632C16.4772 8.01753 16.4772 7.64651 16.2484 7.41769C16.0196 7.1889 15.6486 7.1889 15.4198 7.41769L14.1907 8.64675L13.8479 8.30394C13.6191 8.07515 13.2481 8.07515 13.0193 8.30394C12.7904 8.53272 12.7904 8.90374 13.0193 9.13257L13.7765 9.88968Z" fill="#00CB75"/>
<path d="M13.7765 13.8741C13.8909 13.9885 14.0408 14.0457 14.1908 14.0457C14.3407 14.0457 14.4907 13.9885 14.6051 13.8741L16.2484 12.2307C16.4772 12.0019 16.4772 11.6309 16.2484 11.4021C16.0196 11.1733 15.6486 11.1733 15.4198 11.4021L14.1907 12.6311L13.8479 12.2883C13.6191 12.0595 13.2481 12.0595 13.0193 12.2883C12.7904 12.5171 12.7904 12.8881 13.0193 13.1169L13.7765 13.8741Z" fill="#00CB75"/>
<path d="M15.4198 15.2488L14.1907 16.4778L13.8479 16.135C13.6191 15.9062 13.2481 15.9062 13.0193 16.135C12.7904 16.3638 12.7904 16.7348 13.0193 16.9636L13.7764 17.7208C13.8908 17.8352 14.0408 17.8924 14.1907 17.8924C14.3406 17.8924 14.4906 17.8352 14.605 17.7208L16.2484 16.0774C16.4772 15.8486 16.4772 15.4776 16.2484 15.2488C16.0195 15.0199 15.6486 15.0199 15.4198 15.2488Z" fill="#00CB75"/>
</svg>
