<svg width="21" height="20" viewBox="0 0 21 20" fill="none" xmlns="http://www.w3.org/2000/svg">
<path d="M13.8415 13.3639L13.8189 13.4514C13.588 14.3589 13.4708 15.2925 13.4708 16.2261V17.3726C13.4708 18.2527 12.7556 18.9687 11.8764 18.9687H6.39561C5.51631 18.9687 4.80112 18.2527 4.80112 17.3726V16.855H3.55424C2.49608 16.855 1.63553 15.9933 1.63553 14.9343V13.1636H1.13788C0.732409 13.1562 0.367565 12.9433 0.161315 12.5933C-0.0445446 12.2437 -0.0539196 11.821 0.136315 11.4632L1.30776 9.25106C1.52339 8.84442 1.63745 8.38582 1.63745 7.92566C1.63745 6.06395 2.36479 4.31703 3.68546 3.00649C4.76628 1.93383 6.13815 1.26195 7.62014 1.06274C7.94631 1.01859 8.27835 0.997501 8.61346 1.00024C10.24 1.01313 11.8142 1.59906 13.0458 2.64984L13.236 2.81234L13.8415 13.3639Z" fill="#FFE0D9"/>
<path d="M13.8425 13.364L13.8198 13.4515C13.5889 14.3589 13.4718 15.2925 13.4718 16.2262V17.3727C13.4718 18.2527 12.7565 18.9688 11.8773 18.9688H7.62109V1.06274C7.94727 1.01859 8.2793 0.997501 8.61441 1.00024C10.2409 1.01313 11.8151 1.59906 13.0468 2.64984L13.237 2.81234L13.8425 13.364Z" fill="#FCC7BE"/>
<path d="M20.0013 8.13266C20.0013 11.353 17.3842 13.9729 14.1679 13.9729C10.9511 13.9729 8.33398 11.353 8.33398 8.13266C8.33398 4.91191 10.9511 2.29199 14.1679 2.29199C17.3842 2.29195 20.0013 4.91191 20.0013 8.13266Z" fill="#C8FFFF"/>
<path d="M19.9995 8.1327C19.9995 11.353 17.3823 13.973 14.166 13.973V2.29199C17.3823 2.29199 19.9995 4.91195 19.9995 8.1327Z" fill="#98F9FF"/>
<path d="M14.9386 8.6248C14.8272 8.66738 14.7526 8.78379 14.7526 8.91348C14.7526 9.23731 14.4901 9.49941 14.1667 9.49941C13.8429 9.49941 13.5808 9.23731 13.5808 8.91348C13.5808 8.44121 13.8058 8.00176 14.1667 7.72754C14.2729 7.64629 14.3909 7.57988 14.5183 7.53105C14.9237 7.3752 15.1757 6.97793 15.1452 6.54277C15.1112 6.05801 14.7042 5.65957 14.2187 5.63496C14.2015 5.63418 14.1839 5.6334 14.1667 5.6334C13.9042 5.63301 13.6597 5.73418 13.4729 5.9209C13.244 6.1498 12.8729 6.1498 12.644 5.9209C12.4155 5.69199 12.4155 5.3209 12.644 5.09238C13.0479 4.68848 13.5979 4.4627 14.1667 4.46191C14.2034 4.46191 14.2405 4.4627 14.2776 4.46465C15.3628 4.51934 16.2381 5.37754 16.3139 6.46078C16.3808 7.41305 15.828 8.28301 14.9386 8.6248Z" fill="#2A5959"/>
<path d="M14.752 10.6064V11.2158C14.752 11.5393 14.4895 11.8018 14.166 11.8018C13.8422 11.8018 13.5801 11.5393 13.5801 11.2158V10.6064C13.5801 10.283 13.8422 10.0205 14.166 10.0205C14.4895 10.0205 14.752 10.283 14.752 10.6064Z" fill="#2A5959"/>
<path d="M14.752 10.6064V11.2158C14.752 11.5393 14.4895 11.8018 14.166 11.8018V10.0205C14.4895 10.0205 14.752 10.283 14.752 10.6064Z" fill="#2B4747"/>
<path d="M14.9379 8.6248C14.8266 8.66738 14.752 8.78379 14.752 8.91348C14.752 9.23731 14.4895 9.49941 14.166 9.49941V7.72754C14.2723 7.64629 14.3902 7.57988 14.5176 7.53105C14.923 7.3752 15.175 6.97793 15.1445 6.54277C15.1105 6.05801 14.7035 5.65957 14.218 5.63496C14.2008 5.63418 14.1832 5.6334 14.166 5.6334V4.46191C14.2027 4.46191 14.2398 4.4627 14.277 4.46465C15.3621 4.51934 16.2375 5.37754 16.3132 6.46078C16.3801 7.41305 15.8273 8.28301 14.9379 8.6248Z" fill="#2B4747"/>
</svg>
